<mxfile host="app.diagrams.net" agent="Mozilla/5.0 (X11; Linux x86_64; rv:128.0) Gecko/20100101 Firefox/128.0" version="27.1.6">
  <diagram name="Page-1" id="ff9JivxMzI5oWSQe7ijw">
    <mxGraphModel dx="1106" dy="532" grid="1" gridSize="10" guides="1" tooltips="1" connect="1" arrows="1" fold="1" page="1" pageScale="1" pageWidth="850" pageHeight="1100" math="0" shadow="0">
      <root>
        <mxCell id="0" />
        <mxCell id="1" parent="0" />
        <mxCell id="Dt-jm9AHdO3nUaJKmYpJ-1" value="" style="rounded=0;whiteSpace=wrap;html=1;strokeWidth=7;fillColor=light-dark(#1BA1E2,#66B2FF);strokeColor=light-dark(#006EAF,#FFFFFF);fontColor=#ffffff;" vertex="1" parent="1">
          <mxGeometry x="330" y="30" width="980" height="760" as="geometry" />
        </mxCell>
        <mxCell id="Dt-jm9AHdO3nUaJKmYpJ-2" value="&lt;font style=&quot;color: light-dark(rgb(0, 0, 0), rgb(255, 255, 255)); font-size: 25px;&quot;&gt;Gerer élèves&lt;/font&gt;&lt;font style=&quot;color: light-dark(rgb(0, 0, 0), rgb(255, 255, 255)); font-size: 25px;&quot;&gt;&lt;span style=&quot;background-color: rgb(0, 0, 0);&quot;&gt;&lt;br&gt;&lt;/span&gt;&lt;/font&gt;" style="ellipse;whiteSpace=wrap;html=1;strokeWidth=3;fillColor=#60a917;fontColor=#ffffff;strokeColor=light-dark(#2D7600, #f6f5f4);" vertex="1" parent="1">
          <mxGeometry x="450" y="80" width="160" height="80" as="geometry" />
        </mxCell>
        <mxCell id="Dt-jm9AHdO3nUaJKmYpJ-3" value="&lt;font style=&quot;font-size: 23px; color: light-dark(rgb(0, 0, 0), rgb(255, 255, 255));&quot;&gt;Gerer classes&lt;/font&gt;" style="ellipse;whiteSpace=wrap;html=1;strokeWidth=3;strokeColor=light-dark(#2D7600, #ffffff);fillColor=#60a917;fontColor=#ffffff;" vertex="1" parent="1">
          <mxGeometry x="690" y="60" width="160" height="80" as="geometry" />
        </mxCell>
        <mxCell id="Dt-jm9AHdO3nUaJKmYpJ-4" value="&lt;font style=&quot;color: light-dark(rgb(0, 0, 0), rgb(255, 255, 255)); font-size: 22px;&quot;&gt;Gerer enseignants&lt;br&gt;&lt;/font&gt;" style="ellipse;whiteSpace=wrap;html=1;strokeWidth=3;fillColor=#60a917;fontColor=#ffffff;strokeColor=light-dark(#2D7600,#FFFFFF);" vertex="1" parent="1">
          <mxGeometry x="1110" y="70" width="150" height="80" as="geometry" />
        </mxCell>
        <mxCell id="Dt-jm9AHdO3nUaJKmYpJ-5" value="&lt;font style=&quot;color: light-dark(rgb(0, 0, 0), rgb(255, 255, 255)); font-size: 22px;&quot;&gt;Gerer Matières&lt;br&gt;&lt;/font&gt;" style="ellipse;whiteSpace=wrap;html=1;strokeWidth=3;fillColor=#60a917;fontColor=#ffffff;strokeColor=light-dark(#2D7600,#FFFFFF);" vertex="1" parent="1">
          <mxGeometry x="910" y="80" width="160" height="80" as="geometry" />
        </mxCell>
        <mxCell id="Dt-jm9AHdO3nUaJKmYpJ-6" value="&lt;font style=&quot;color: light-dark(rgb(0, 0, 0), rgb(255, 255, 255)); font-size: 24px;&quot;&gt;Gerer notes&lt;br&gt;&lt;/font&gt;" style="ellipse;whiteSpace=wrap;html=1;strokeWidth=3;fillColor=#60a917;fontColor=#ffffff;strokeColor=light-dark(#2D7600,#FFFFFF);" vertex="1" parent="1">
          <mxGeometry x="880" y="220" width="140" height="80" as="geometry" />
        </mxCell>
        <mxCell id="Dt-jm9AHdO3nUaJKmYpJ-7" value="&lt;font style=&quot;color: light-dark(rgb(0, 0, 0), rgb(255, 255, 255)); font-size: 23px;&quot;&gt;Gerer bulletins&lt;br&gt;&lt;/font&gt;" style="ellipse;whiteSpace=wrap;html=1;strokeWidth=3;fillColor=#60a917;fontColor=#ffffff;strokeColor=light-dark(#2D7600,#FFFFFF);" vertex="1" parent="1">
          <mxGeometry x="670" y="230" width="160" height="80" as="geometry" />
        </mxCell>
        <mxCell id="Dt-jm9AHdO3nUaJKmYpJ-8" value="&lt;font style=&quot;color: light-dark(rgb(0, 0, 0), rgb(255, 255, 255)); font-size: 24px;&quot;&gt;Consulter Matières&lt;/font&gt;" style="ellipse;whiteSpace=wrap;html=1;strokeWidth=3;fillColor=#60a917;fontColor=#ffffff;strokeColor=light-dark(#2D7600,#FFFFFF);" vertex="1" parent="1">
          <mxGeometry x="500" y="480" width="170" height="80" as="geometry" />
        </mxCell>
        <mxCell id="Dt-jm9AHdO3nUaJKmYpJ-9" value="&lt;font style=&quot;color: light-dark(rgb(0, 0, 0), rgb(255, 255, 255)); font-size: 23px;&quot;&gt;Consulter classes&lt;font&gt;&lt;br&gt;&lt;/font&gt;&lt;/font&gt;" style="ellipse;whiteSpace=wrap;html=1;strokeWidth=3;fillColor=#60a917;fontColor=#ffffff;strokeColor=light-dark(#2D7600,#FFFFFF);" vertex="1" parent="1">
          <mxGeometry x="740" y="480" width="190" height="80" as="geometry" />
        </mxCell>
        <mxCell id="Dt-jm9AHdO3nUaJKmYpJ-10" value="&lt;font style=&quot;font-size: 29px; color: light-dark(rgb(0, 0, 0), rgb(255, 255, 255));&quot;&gt;Saisir notes&lt;/font&gt;" style="ellipse;whiteSpace=wrap;html=1;strokeWidth=3;fillColor=#60a917;fontColor=#ffffff;strokeColor=light-dark(#2D7600,#FFFFFF);" vertex="1" parent="1">
          <mxGeometry x="990" y="480" width="190" height="80" as="geometry" />
        </mxCell>
        <mxCell id="Dt-jm9AHdO3nUaJKmYpJ-11" value="&lt;font style=&quot;color: light-dark(rgb(0, 0, 0), rgb(255, 255, 255)); font-size: 23px;&quot;&gt;Consulter bulletin&lt;font&gt;&lt;br&gt;&lt;/font&gt;&lt;/font&gt;" style="ellipse;whiteSpace=wrap;html=1;strokeWidth=3;fillColor=#60a917;fontColor=#ffffff;strokeColor=light-dark(#2D7600,#FFFFFF);" vertex="1" parent="1">
          <mxGeometry x="720" y="660" width="190" height="80" as="geometry" />
        </mxCell>
        <mxCell id="Dt-jm9AHdO3nUaJKmYpJ-12" value="ELÈVES" style="shape=umlActor;verticalLabelPosition=bottom;verticalAlign=top;html=1;outlineConnect=0;strokeWidth=3;fontSize=19;" vertex="1" parent="1">
          <mxGeometry x="820" y="910" width="60" height="80" as="geometry" />
        </mxCell>
        <mxCell id="Dt-jm9AHdO3nUaJKmYpJ-16" value="" style="endArrow=none;html=1;rounded=0;entryX=0.579;entryY=1;entryDx=0;entryDy=0;entryPerimeter=0;fontSize=28;fontColor=light-dark(default, #ffffff);align=center;strokeWidth=2;" edge="1" parent="1" source="Dt-jm9AHdO3nUaJKmYpJ-12" target="Dt-jm9AHdO3nUaJKmYpJ-11">
          <mxGeometry width="50" height="50" relative="1" as="geometry">
            <mxPoint x="740" y="860" as="sourcePoint" />
            <mxPoint x="790" y="810" as="targetPoint" />
            <Array as="points" />
          </mxGeometry>
        </mxCell>
        <mxCell id="Dt-jm9AHdO3nUaJKmYpJ-17" value="&lt;font style=&quot;font-size: 18px;&quot;&gt;ADMIN&lt;/font&gt;" style="shape=umlActor;verticalLabelPosition=bottom;verticalAlign=top;html=1;outlineConnect=0;strokeColor=default;strokeWidth=3;" vertex="1" parent="1">
          <mxGeometry x="100" y="240" width="60" height="90" as="geometry" />
        </mxCell>
        <mxCell id="Dt-jm9AHdO3nUaJKmYpJ-18" value="" style="endArrow=none;html=1;rounded=0;entryX=0.013;entryY=0.388;entryDx=0;entryDy=0;entryPerimeter=0;strokeWidth=2;" edge="1" parent="1" source="Dt-jm9AHdO3nUaJKmYpJ-17" target="Dt-jm9AHdO3nUaJKmYpJ-2">
          <mxGeometry width="50" height="50" relative="1" as="geometry">
            <mxPoint x="560" y="290" as="sourcePoint" />
            <mxPoint x="610" y="240" as="targetPoint" />
          </mxGeometry>
        </mxCell>
        <mxCell id="Dt-jm9AHdO3nUaJKmYpJ-19" value="" style="endArrow=none;html=1;rounded=0;strokeWidth=2;" edge="1" parent="1">
          <mxGeometry width="50" height="50" relative="1" as="geometry">
            <mxPoint x="170" y="279" as="sourcePoint" />
            <mxPoint x="720" y="130" as="targetPoint" />
          </mxGeometry>
        </mxCell>
        <mxCell id="Dt-jm9AHdO3nUaJKmYpJ-20" value="" style="endArrow=none;html=1;rounded=0;entryX=0.238;entryY=0.888;entryDx=0;entryDy=0;entryPerimeter=0;strokeWidth=2;" edge="1" parent="1" target="Dt-jm9AHdO3nUaJKmYpJ-5">
          <mxGeometry width="50" height="50" relative="1" as="geometry">
            <mxPoint x="180" y="289" as="sourcePoint" />
            <mxPoint x="730" y="140" as="targetPoint" />
          </mxGeometry>
        </mxCell>
        <mxCell id="Dt-jm9AHdO3nUaJKmYpJ-21" value="" style="endArrow=none;html=1;rounded=0;entryX=0.029;entryY=0.75;entryDx=0;entryDy=0;entryPerimeter=0;strokeWidth=2;" edge="1" parent="1" target="Dt-jm9AHdO3nUaJKmYpJ-7">
          <mxGeometry width="50" height="50" relative="1" as="geometry">
            <mxPoint x="190" y="299" as="sourcePoint" />
            <mxPoint x="972" y="163" as="targetPoint" />
            <Array as="points" />
          </mxGeometry>
        </mxCell>
        <mxCell id="Dt-jm9AHdO3nUaJKmYpJ-22" value="" style="endArrow=none;html=1;rounded=0;entryX=0.443;entryY=1.013;entryDx=0;entryDy=0;entryPerimeter=0;strokeWidth=2;" edge="1" parent="1" target="Dt-jm9AHdO3nUaJKmYpJ-6">
          <mxGeometry width="50" height="50" relative="1" as="geometry">
            <mxPoint x="200" y="309" as="sourcePoint" />
            <mxPoint x="684" y="300" as="targetPoint" />
            <Array as="points">
              <mxPoint x="600" y="340" />
            </Array>
          </mxGeometry>
        </mxCell>
        <mxCell id="Dt-jm9AHdO3nUaJKmYpJ-23" value="" style="endArrow=none;html=1;rounded=0;entryX=0.207;entryY=0.863;entryDx=0;entryDy=0;entryPerimeter=0;strokeWidth=2;" edge="1" parent="1" target="Dt-jm9AHdO3nUaJKmYpJ-4">
          <mxGeometry width="50" height="50" relative="1" as="geometry">
            <mxPoint x="210" y="319" as="sourcePoint" />
            <mxPoint x="952" y="311" as="targetPoint" />
            <Array as="points">
              <mxPoint x="620" y="400" />
              <mxPoint x="1030" y="340" />
            </Array>
          </mxGeometry>
        </mxCell>
        <mxCell id="Dt-jm9AHdO3nUaJKmYpJ-24" value="&lt;font style=&quot;font-size: 14px;&quot;&gt;ENSEIGNANT&lt;/font&gt;" style="shape=umlActor;verticalLabelPosition=bottom;verticalAlign=top;html=1;outlineConnect=0;strokeWidth=3;" vertex="1" parent="1">
          <mxGeometry x="1570" y="520" width="50" height="90" as="geometry" />
        </mxCell>
        <mxCell id="Dt-jm9AHdO3nUaJKmYpJ-25" value="" style="endArrow=none;html=1;rounded=0;strokeWidth=2;" edge="1" parent="1">
          <mxGeometry width="50" height="50" relative="1" as="geometry">
            <mxPoint x="1560" y="570" as="sourcePoint" />
            <mxPoint x="1170" y="540" as="targetPoint" />
          </mxGeometry>
        </mxCell>
        <mxCell id="Dt-jm9AHdO3nUaJKmYpJ-26" value="" style="endArrow=none;html=1;rounded=0;entryX=0.642;entryY=0.975;entryDx=0;entryDy=0;entryPerimeter=0;strokeWidth=2;" edge="1" parent="1" target="Dt-jm9AHdO3nUaJKmYpJ-9">
          <mxGeometry width="50" height="50" relative="1" as="geometry">
            <mxPoint x="1580" y="574" as="sourcePoint" />
            <mxPoint x="1180" y="550" as="targetPoint" />
            <Array as="points">
              <mxPoint x="1220" y="630" />
            </Array>
          </mxGeometry>
        </mxCell>
        <mxCell id="Dt-jm9AHdO3nUaJKmYpJ-27" value="" style="endArrow=none;html=1;rounded=0;strokeWidth=2;" edge="1" parent="1" target="Dt-jm9AHdO3nUaJKmYpJ-8">
          <mxGeometry width="50" height="50" relative="1" as="geometry">
            <mxPoint x="1580" y="574" as="sourcePoint" />
            <mxPoint x="1180" y="550" as="targetPoint" />
            <Array as="points">
              <mxPoint x="950" y="380" />
            </Array>
          </mxGeometry>
        </mxCell>
        <mxCell id="Dt-jm9AHdO3nUaJKmYpJ-29" style="edgeStyle=orthogonalEdgeStyle;rounded=0;orthogonalLoop=1;jettySize=auto;html=1;" edge="1" parent="1">
          <mxGeometry relative="1" as="geometry">
            <mxPoint x="1080" y="1470" as="sourcePoint" />
            <mxPoint x="1080" y="1490" as="targetPoint" />
          </mxGeometry>
        </mxCell>
        <mxCell id="Dt-jm9AHdO3nUaJKmYpJ-31" value="&lt;font style=&quot;font-size: 18px;&quot;&gt;Élèves&lt;/font&gt;" style="swimlane;fontStyle=0;childLayout=stackLayout;horizontal=1;startSize=30;horizontalStack=0;resizeParent=1;resizeParentMax=0;resizeLast=0;collapsible=1;marginBottom=0;whiteSpace=wrap;html=1;" vertex="1" parent="1">
          <mxGeometry x="240" y="1170" width="140" height="150" as="geometry" />
        </mxCell>
        <mxCell id="Dt-jm9AHdO3nUaJKmYpJ-32" value="id : int" style="text;strokeColor=none;fillColor=none;align=left;verticalAlign=middle;spacingLeft=4;spacingRight=4;overflow=hidden;points=[[0,0.5],[1,0.5]];portConstraint=eastwest;rotatable=0;whiteSpace=wrap;html=1;" vertex="1" parent="Dt-jm9AHdO3nUaJKmYpJ-31">
          <mxGeometry y="30" width="140" height="30" as="geometry" />
        </mxCell>
        <mxCell id="Dt-jm9AHdO3nUaJKmYpJ-33" value="nom : Varchar(25)" style="text;strokeColor=none;fillColor=none;align=left;verticalAlign=middle;spacingLeft=4;spacingRight=4;overflow=hidden;points=[[0,0.5],[1,0.5]];portConstraint=eastwest;rotatable=0;whiteSpace=wrap;html=1;" vertex="1" parent="Dt-jm9AHdO3nUaJKmYpJ-31">
          <mxGeometry y="60" width="140" height="30" as="geometry" />
        </mxCell>
        <mxCell id="Dt-jm9AHdO3nUaJKmYpJ-34" value="prenom : Varchar(20)" style="text;strokeColor=none;fillColor=none;align=left;verticalAlign=middle;spacingLeft=4;spacingRight=4;overflow=hidden;points=[[0,0.5],[1,0.5]];portConstraint=eastwest;rotatable=0;whiteSpace=wrap;html=1;" vertex="1" parent="Dt-jm9AHdO3nUaJKmYpJ-31">
          <mxGeometry y="90" width="140" height="30" as="geometry" />
        </mxCell>
        <mxCell id="Dt-jm9AHdO3nUaJKmYpJ-35" value="class_id : int" style="text;strokeColor=none;fillColor=none;align=left;verticalAlign=middle;spacingLeft=4;spacingRight=4;overflow=hidden;points=[[0,0.5],[1,0.5]];portConstraint=eastwest;rotatable=0;whiteSpace=wrap;html=1;" vertex="1" parent="Dt-jm9AHdO3nUaJKmYpJ-31">
          <mxGeometry y="120" width="140" height="30" as="geometry" />
        </mxCell>
        <mxCell id="Dt-jm9AHdO3nUaJKmYpJ-42" value="&lt;font style=&quot;font-size: 18px;&quot;&gt;Diagramme de classe&lt;/font&gt;" style="swimlane;whiteSpace=wrap;html=1;" vertex="1" parent="1">
          <mxGeometry x="70" y="1090" width="1030" height="900" as="geometry" />
        </mxCell>
        <mxCell id="Dt-jm9AHdO3nUaJKmYpJ-38" value="&lt;font style=&quot;font-size: 22px;&quot;&gt;Classes&lt;/font&gt;" style="swimlane;fontStyle=0;childLayout=stackLayout;horizontal=1;startSize=30;horizontalStack=0;resizeParent=1;resizeParentMax=0;resizeLast=0;collapsible=1;marginBottom=0;whiteSpace=wrap;html=1;" vertex="1" parent="Dt-jm9AHdO3nUaJKmYpJ-42">
          <mxGeometry x="760" y="60" width="180" height="90" as="geometry" />
        </mxCell>
        <mxCell id="Dt-jm9AHdO3nUaJKmYpJ-39" value="id : int" style="text;strokeColor=none;fillColor=none;align=left;verticalAlign=middle;spacingLeft=4;spacingRight=4;overflow=hidden;points=[[0,0.5],[1,0.5]];portConstraint=eastwest;rotatable=0;whiteSpace=wrap;html=1;" vertex="1" parent="Dt-jm9AHdO3nUaJKmYpJ-38">
          <mxGeometry y="30" width="180" height="30" as="geometry" />
        </mxCell>
        <mxCell id="Dt-jm9AHdO3nUaJKmYpJ-40" value="nom : string" style="text;strokeColor=none;fillColor=none;align=left;verticalAlign=middle;spacingLeft=4;spacingRight=4;overflow=hidden;points=[[0,0.5],[1,0.5]];portConstraint=eastwest;rotatable=0;whiteSpace=wrap;html=1;" vertex="1" parent="Dt-jm9AHdO3nUaJKmYpJ-38">
          <mxGeometry y="60" width="180" height="30" as="geometry" />
        </mxCell>
        <mxCell id="Dt-jm9AHdO3nUaJKmYpJ-53" value="&lt;font style=&quot;font-size: 21px;&quot;&gt;Matiere&lt;/font&gt;" style="swimlane;fontStyle=0;childLayout=stackLayout;horizontal=1;startSize=30;horizontalStack=0;resizeParent=1;resizeParentMax=0;resizeLast=0;collapsible=1;marginBottom=0;whiteSpace=wrap;html=1;" vertex="1" parent="Dt-jm9AHdO3nUaJKmYpJ-42">
          <mxGeometry x="470" y="540" width="180" height="120" as="geometry" />
        </mxCell>
        <mxCell id="Dt-jm9AHdO3nUaJKmYpJ-54" value="id : int" style="text;strokeColor=none;fillColor=none;align=left;verticalAlign=middle;spacingLeft=4;spacingRight=4;overflow=hidden;points=[[0,0.5],[1,0.5]];portConstraint=eastwest;rotatable=0;whiteSpace=wrap;html=1;" vertex="1" parent="Dt-jm9AHdO3nUaJKmYpJ-53">
          <mxGeometry y="30" width="180" height="30" as="geometry" />
        </mxCell>
        <mxCell id="Dt-jm9AHdO3nUaJKmYpJ-55" value="nom : string" style="text;strokeColor=none;fillColor=none;align=left;verticalAlign=middle;spacingLeft=4;spacingRight=4;overflow=hidden;points=[[0,0.5],[1,0.5]];portConstraint=eastwest;rotatable=0;whiteSpace=wrap;html=1;" vertex="1" parent="Dt-jm9AHdO3nUaJKmYpJ-53">
          <mxGeometry y="60" width="180" height="30" as="geometry" />
        </mxCell>
        <mxCell id="Dt-jm9AHdO3nUaJKmYpJ-56" value="volume_horaire : string" style="text;strokeColor=none;fillColor=none;align=left;verticalAlign=middle;spacingLeft=4;spacingRight=4;overflow=hidden;points=[[0,0.5],[1,0.5]];portConstraint=eastwest;rotatable=0;whiteSpace=wrap;html=1;" vertex="1" parent="Dt-jm9AHdO3nUaJKmYpJ-53">
          <mxGeometry y="90" width="180" height="30" as="geometry" />
        </mxCell>
        <mxCell id="Dt-jm9AHdO3nUaJKmYpJ-57" value="&lt;font style=&quot;font-size: 23px;&quot;&gt;Notes&lt;/font&gt;" style="swimlane;fontStyle=0;childLayout=stackLayout;horizontal=1;startSize=30;horizontalStack=0;resizeParent=1;resizeParentMax=0;resizeLast=0;collapsible=1;marginBottom=0;whiteSpace=wrap;html=1;" vertex="1" parent="Dt-jm9AHdO3nUaJKmYpJ-42">
          <mxGeometry x="480" y="190" width="170" height="210" as="geometry" />
        </mxCell>
        <mxCell id="Dt-jm9AHdO3nUaJKmYpJ-58" value="&lt;font style=&quot;font-size: 17px;&quot;&gt;id : int&lt;/font&gt;" style="text;strokeColor=none;fillColor=none;align=left;verticalAlign=middle;spacingLeft=4;spacingRight=4;overflow=hidden;points=[[0,0.5],[1,0.5]];portConstraint=eastwest;rotatable=0;whiteSpace=wrap;html=1;" vertex="1" parent="Dt-jm9AHdO3nUaJKmYpJ-57">
          <mxGeometry y="30" width="170" height="30" as="geometry" />
        </mxCell>
        <mxCell id="Dt-jm9AHdO3nUaJKmYpJ-59" value="&lt;font style=&quot;font-size: 17px;&quot;&gt;eleve_id : int&lt;/font&gt;" style="text;strokeColor=none;fillColor=none;align=left;verticalAlign=middle;spacingLeft=4;spacingRight=4;overflow=hidden;points=[[0,0.5],[1,0.5]];portConstraint=eastwest;rotatable=0;whiteSpace=wrap;html=1;" vertex="1" parent="Dt-jm9AHdO3nUaJKmYpJ-57">
          <mxGeometry y="60" width="170" height="30" as="geometry" />
        </mxCell>
        <mxCell id="Dt-jm9AHdO3nUaJKmYpJ-61" value="&lt;font style=&quot;font-size: 17px;&quot;&gt;matere_id : int&lt;/font&gt;" style="text;strokeColor=none;fillColor=none;align=left;verticalAlign=middle;spacingLeft=4;spacingRight=4;overflow=hidden;points=[[0,0.5],[1,0.5]];portConstraint=eastwest;rotatable=0;whiteSpace=wrap;html=1;" vertex="1" parent="Dt-jm9AHdO3nUaJKmYpJ-57">
          <mxGeometry y="90" width="170" height="30" as="geometry" />
        </mxCell>
        <mxCell id="Dt-jm9AHdO3nUaJKmYpJ-63" value="&lt;font style=&quot;font-size: 17px;&quot;&gt;enseignant_id : int&lt;/font&gt;" style="text;strokeColor=none;fillColor=none;align=left;verticalAlign=middle;spacingLeft=4;spacingRight=4;overflow=hidden;points=[[0,0.5],[1,0.5]];portConstraint=eastwest;rotatable=0;whiteSpace=wrap;html=1;" vertex="1" parent="Dt-jm9AHdO3nUaJKmYpJ-57">
          <mxGeometry y="120" width="170" height="30" as="geometry" />
        </mxCell>
        <mxCell id="Dt-jm9AHdO3nUaJKmYpJ-64" value="&lt;font style=&quot;font-size: 17px;&quot;&gt;trimestre : string&lt;/font&gt;" style="text;strokeColor=none;fillColor=none;align=left;verticalAlign=middle;spacingLeft=4;spacingRight=4;overflow=hidden;points=[[0,0.5],[1,0.5]];portConstraint=eastwest;rotatable=0;whiteSpace=wrap;html=1;" vertex="1" parent="Dt-jm9AHdO3nUaJKmYpJ-57">
          <mxGeometry y="150" width="170" height="30" as="geometry" />
        </mxCell>
        <mxCell id="Dt-jm9AHdO3nUaJKmYpJ-65" value="&lt;font style=&quot;font-size: 17px;&quot;&gt;note : double&lt;/font&gt;" style="text;strokeColor=none;fillColor=none;align=left;verticalAlign=middle;spacingLeft=4;spacingRight=4;overflow=hidden;points=[[0,0.5],[1,0.5]];portConstraint=eastwest;rotatable=0;whiteSpace=wrap;html=1;" vertex="1" parent="Dt-jm9AHdO3nUaJKmYpJ-57">
          <mxGeometry y="180" width="170" height="30" as="geometry" />
        </mxCell>
        <mxCell id="Dt-jm9AHdO3nUaJKmYpJ-71" value="&lt;font style=&quot;font-size: 18px;&quot;&gt;Emplois de temps&lt;/font&gt;" style="swimlane;fontStyle=0;childLayout=stackLayout;horizontal=1;startSize=30;horizontalStack=0;resizeParent=1;resizeParentMax=0;resizeLast=0;collapsible=1;marginBottom=0;whiteSpace=wrap;html=1;" vertex="1" parent="Dt-jm9AHdO3nUaJKmYpJ-42">
          <mxGeometry x="800" y="670" width="170" height="210" as="geometry" />
        </mxCell>
        <mxCell id="Dt-jm9AHdO3nUaJKmYpJ-72" value="&lt;font style=&quot;font-size: 17px;&quot;&gt;id : int&lt;/font&gt;" style="text;strokeColor=none;fillColor=none;align=left;verticalAlign=middle;spacingLeft=4;spacingRight=4;overflow=hidden;points=[[0,0.5],[1,0.5]];portConstraint=eastwest;rotatable=0;whiteSpace=wrap;html=1;" vertex="1" parent="Dt-jm9AHdO3nUaJKmYpJ-71">
          <mxGeometry y="30" width="170" height="30" as="geometry" />
        </mxCell>
        <mxCell id="Dt-jm9AHdO3nUaJKmYpJ-74" value="&lt;font style=&quot;font-size: 17px;&quot;&gt;classe_id : int&lt;/font&gt;" style="text;strokeColor=none;fillColor=none;align=left;verticalAlign=middle;spacingLeft=4;spacingRight=4;overflow=hidden;points=[[0,0.5],[1,0.5]];portConstraint=eastwest;rotatable=0;whiteSpace=wrap;html=1;" vertex="1" parent="Dt-jm9AHdO3nUaJKmYpJ-71">
          <mxGeometry y="60" width="170" height="30" as="geometry" />
        </mxCell>
        <mxCell id="Dt-jm9AHdO3nUaJKmYpJ-78" value="&lt;font style=&quot;font-size: 17px;&quot;&gt;jour : string&lt;/font&gt;" style="text;strokeColor=none;fillColor=none;align=left;verticalAlign=middle;spacingLeft=4;spacingRight=4;overflow=hidden;points=[[0,0.5],[1,0.5]];portConstraint=eastwest;rotatable=0;whiteSpace=wrap;html=1;" vertex="1" parent="Dt-jm9AHdO3nUaJKmYpJ-71">
          <mxGeometry y="90" width="170" height="30" as="geometry" />
        </mxCell>
        <mxCell id="Dt-jm9AHdO3nUaJKmYpJ-79" value="&lt;font style=&quot;font-size: 17px;&quot;&gt;heure : string&lt;/font&gt;" style="text;strokeColor=none;fillColor=none;align=left;verticalAlign=middle;spacingLeft=4;spacingRight=4;overflow=hidden;points=[[0,0.5],[1,0.5]];portConstraint=eastwest;rotatable=0;whiteSpace=wrap;html=1;" vertex="1" parent="Dt-jm9AHdO3nUaJKmYpJ-71">
          <mxGeometry y="120" width="170" height="30" as="geometry" />
        </mxCell>
        <mxCell id="Dt-jm9AHdO3nUaJKmYpJ-75" value="&lt;font style=&quot;font-size: 17px;&quot;&gt;enseignant_id : int&lt;/font&gt;" style="text;strokeColor=none;fillColor=none;align=left;verticalAlign=middle;spacingLeft=4;spacingRight=4;overflow=hidden;points=[[0,0.5],[1,0.5]];portConstraint=eastwest;rotatable=0;whiteSpace=wrap;html=1;" vertex="1" parent="Dt-jm9AHdO3nUaJKmYpJ-71">
          <mxGeometry y="150" width="170" height="30" as="geometry" />
        </mxCell>
        <mxCell id="Dt-jm9AHdO3nUaJKmYpJ-76" value="&lt;font style=&quot;font-size: 17px;&quot;&gt;matiere_id : int&lt;/font&gt;" style="text;strokeColor=none;fillColor=none;align=left;verticalAlign=middle;spacingLeft=4;spacingRight=4;overflow=hidden;points=[[0,0.5],[1,0.5]];portConstraint=eastwest;rotatable=0;whiteSpace=wrap;html=1;" vertex="1" parent="Dt-jm9AHdO3nUaJKmYpJ-71">
          <mxGeometry y="180" width="170" height="30" as="geometry" />
        </mxCell>
        <mxCell id="Dt-jm9AHdO3nUaJKmYpJ-80" value="&lt;font style=&quot;font-size: 17px;&quot;&gt;Bulletins&lt;/font&gt;" style="swimlane;fontStyle=0;childLayout=stackLayout;horizontal=1;startSize=30;horizontalStack=0;resizeParent=1;resizeParentMax=0;resizeLast=0;collapsible=1;marginBottom=0;whiteSpace=wrap;html=1;" vertex="1" parent="Dt-jm9AHdO3nUaJKmYpJ-42">
          <mxGeometry x="30" y="410" width="280" height="180" as="geometry" />
        </mxCell>
        <mxCell id="Dt-jm9AHdO3nUaJKmYpJ-81" value="&lt;font style=&quot;font-size: 17px;&quot;&gt;id : int&lt;/font&gt;" style="text;strokeColor=none;fillColor=none;align=left;verticalAlign=middle;spacingLeft=4;spacingRight=4;overflow=hidden;points=[[0,0.5],[1,0.5]];portConstraint=eastwest;rotatable=0;whiteSpace=wrap;html=1;" vertex="1" parent="Dt-jm9AHdO3nUaJKmYpJ-80">
          <mxGeometry y="30" width="280" height="30" as="geometry" />
        </mxCell>
        <mxCell id="Dt-jm9AHdO3nUaJKmYpJ-82" value="&lt;font style=&quot;font-size: 17px;&quot;&gt;eleve_id : int&lt;/font&gt;" style="text;strokeColor=none;fillColor=none;align=left;verticalAlign=middle;spacingLeft=4;spacingRight=4;overflow=hidden;points=[[0,0.5],[1,0.5]];portConstraint=eastwest;rotatable=0;whiteSpace=wrap;html=1;" vertex="1" parent="Dt-jm9AHdO3nUaJKmYpJ-80">
          <mxGeometry y="60" width="280" height="30" as="geometry" />
        </mxCell>
        <mxCell id="Dt-jm9AHdO3nUaJKmYpJ-83" value="&lt;font style=&quot;font-size: 17px;&quot;&gt;trimestre : string&lt;/font&gt;" style="text;strokeColor=none;fillColor=none;align=left;verticalAlign=middle;spacingLeft=4;spacingRight=4;overflow=hidden;points=[[0,0.5],[1,0.5]];portConstraint=eastwest;rotatable=0;whiteSpace=wrap;html=1;" vertex="1" parent="Dt-jm9AHdO3nUaJKmYpJ-80">
          <mxGeometry y="90" width="280" height="30" as="geometry" />
        </mxCell>
        <mxCell id="Dt-jm9AHdO3nUaJKmYpJ-84" value="&lt;font style=&quot;font-size: 17px;&quot;&gt;moyenne_trimestrielle : double&lt;/font&gt;" style="text;strokeColor=none;fillColor=none;align=left;verticalAlign=middle;spacingLeft=4;spacingRight=4;overflow=hidden;points=[[0,0.5],[1,0.5]];portConstraint=eastwest;rotatable=0;whiteSpace=wrap;html=1;strokeWidth=5;" vertex="1" parent="Dt-jm9AHdO3nUaJKmYpJ-80">
          <mxGeometry y="120" width="280" height="30" as="geometry" />
        </mxCell>
        <mxCell id="Dt-jm9AHdO3nUaJKmYpJ-88" value="&lt;font style=&quot;font-size: 17px;&quot;&gt;appreciation : string&lt;/font&gt;" style="text;strokeColor=none;fillColor=none;align=left;verticalAlign=middle;spacingLeft=4;spacingRight=4;overflow=hidden;points=[[0,0.5],[1,0.5]];portConstraint=eastwest;rotatable=0;whiteSpace=wrap;html=1;strokeWidth=5;" vertex="1" parent="Dt-jm9AHdO3nUaJKmYpJ-80">
          <mxGeometry y="150" width="280" height="30" as="geometry" />
        </mxCell>
        <mxCell id="Dt-jm9AHdO3nUaJKmYpJ-43" value="&lt;font style=&quot;font-size: 17px;&quot;&gt;Enseignants&lt;/font&gt;" style="swimlane;fontStyle=0;childLayout=stackLayout;horizontal=1;startSize=30;horizontalStack=0;resizeParent=1;resizeParentMax=0;resizeLast=0;collapsible=1;marginBottom=0;whiteSpace=wrap;html=1;" vertex="1" parent="Dt-jm9AHdO3nUaJKmYpJ-42">
          <mxGeometry x="780" y="350" width="140" height="150" as="geometry" />
        </mxCell>
        <mxCell id="Dt-jm9AHdO3nUaJKmYpJ-44" value="id : int" style="text;strokeColor=none;fillColor=none;align=left;verticalAlign=middle;spacingLeft=4;spacingRight=4;overflow=hidden;points=[[0,0.5],[1,0.5]];portConstraint=eastwest;rotatable=0;whiteSpace=wrap;html=1;" vertex="1" parent="Dt-jm9AHdO3nUaJKmYpJ-43">
          <mxGeometry y="30" width="140" height="30" as="geometry" />
        </mxCell>
        <mxCell id="Dt-jm9AHdO3nUaJKmYpJ-45" value="nom : Varchar(25)" style="text;strokeColor=none;fillColor=none;align=left;verticalAlign=middle;spacingLeft=4;spacingRight=4;overflow=hidden;points=[[0,0.5],[1,0.5]];portConstraint=eastwest;rotatable=0;whiteSpace=wrap;html=1;" vertex="1" parent="Dt-jm9AHdO3nUaJKmYpJ-43">
          <mxGeometry y="60" width="140" height="30" as="geometry" />
        </mxCell>
        <mxCell id="Dt-jm9AHdO3nUaJKmYpJ-46" value="prenom : Varchar(20)" style="text;strokeColor=none;fillColor=none;align=left;verticalAlign=middle;spacingLeft=4;spacingRight=4;overflow=hidden;points=[[0,0.5],[1,0.5]];portConstraint=eastwest;rotatable=0;whiteSpace=wrap;html=1;" vertex="1" parent="Dt-jm9AHdO3nUaJKmYpJ-43">
          <mxGeometry y="90" width="140" height="30" as="geometry" />
        </mxCell>
        <mxCell id="Dt-jm9AHdO3nUaJKmYpJ-47" value="matere_id : int" style="text;strokeColor=none;fillColor=none;align=left;verticalAlign=middle;spacingLeft=4;spacingRight=4;overflow=hidden;points=[[0,0.5],[1,0.5]];portConstraint=eastwest;rotatable=0;whiteSpace=wrap;html=1;" vertex="1" parent="Dt-jm9AHdO3nUaJKmYpJ-43">
          <mxGeometry y="120" width="140" height="30" as="geometry" />
        </mxCell>
      </root>
    </mxGraphModel>
  </diagram>
</mxfile>
